<?xml version="1.0" encoding="UTF-8"?>
<svg width="1024px" height="1024px" viewBox="0 0 1024 1024" version="1.1" xmlns="http://www.w3.org/2000/svg" xmlns:xlink="http://www.w3.org/1999/xlink">
    <title>landmarks-app-icon-layer-1</title>
    <defs>
        <linearGradient x1="49.9997664%" y1="100%" x2="49.9997664%" y2="-0.00119909109%" id="linearGradient-1">
            <stop stop-color="#FFFFFF" offset="0%"></stop>
            <stop stop-color="#FFFFFF" offset="0%"></stop>
            <stop stop-color="#FFFFFF" offset="0%"></stop>
            <stop stop-color="#FFFFFF" offset="100%"></stop>
        </linearGradient>
    </defs>
    <g id="landmarks-app-icon-layer-1" stroke="none" stroke-width="1" fill="none" fill-rule="evenodd">
        <path d="M915.802486,569.113942 C916.496923,576.828586 912.318667,583.845604 905.21534,588.843873 C898.672701,593.446443 889.562629,596.310592 879.532293,596.310592 L676.736149,596.310592 C657.395116,596.310592 640.287623,586.148116 638.965138,572.573602 C638.209156,564.8133 642.391289,557.698094 649.539684,552.708172 C656.0799,548.071235 665.189972,545.207577 675.222731,545.207577 L702.773926,545.207577 C706.788871,545.207577 709.879191,542.870208 709.871437,540.045825 C709.871437,540.028151 709.871437,540.010478 709.871437,539.992804 C709.871437,532.935529 713.943565,526.560171 720.533696,521.924708 C727.123827,517.287771 736.186408,514.425095 746.216743,514.425095 L829.132016,514.425095 C849.195109,514.425095 865.42983,525.879236 865.42983,539.993295 C865.42983,540.010969 865.42983,540.028642 865.42983,540.046316 C865.422077,542.87119 868.513366,545.208068 872.528795,545.208068 L877.979137,545.208068 C897.418061,545.208068 914.574983,555.467259 915.80297,569.114924 L915.802486,569.113942 Z" id="Path" fill="url(#linearGradient-1)" fill-rule="nonzero"></path>
    </g>
</svg>