<svg xmlns="http://www.w3.org/2000/svg" enable-background="new 0 0 24 24" viewBox="0 0 24 24" id="swap">
  <g id="_icons">
    <path fill="#81caff" d="M18,15c0,0.72-0.05,1.38-0.15,2.02c-0.03,0.21-0.08,0.44-0.12,0.66c0,0.01-0.01,0.03-0.01,0.04
			c-0.21,0.99-0.7,1.89-1.4,2.6c-0.72,0.71-1.63,1.2-2.64,1.41C12.79,21.91,11.89,22,11,22c-0.9,0-1.79-0.09-2.68-0.27
			c-1.01-0.21-1.92-0.7-2.64-1.41c-0.71-0.72-1.2-1.63-1.41-2.64C4.09,16.82,4,15.91,4,15c0-0.91,0.09-1.82,0.27-2.68
			c0.21-1.01,0.7-1.92,1.41-2.64c0.71-0.7,1.61-1.19,2.6-1.4c0.0099,0,0.03-0.01,0.04-0.01C8.54,8.23,8.77,8.18,9,8.15
			c1.41-0.23,3.13-0.2,4.68,0.12c1.01,0.21,1.92,0.7,2.64,1.41c0.71,0.72,1.2,1.63,1.41,2.64C17.91,13.18,18,14.09,18,15z"></path>
    <path fill="#944cf2" d="M22,11c0,0.91-0.09,1.82-0.27,2.68c-0.21,1.01-0.7,1.92-1.41,2.64c-0.71,0.7-1.61,1.19-2.6,1.4
			c0-0.01,0.01-0.03,0.01-0.04c0.04-0.22,0.09-0.45,0.12-0.66C17.95,16.38,18,15.72,18,15c0-0.91-0.09-1.82-0.27-2.68
			c-0.21-1.01-0.7-1.92-1.41-2.64c-0.72-0.71-1.63-1.2-2.64-1.41C12.13,7.95,10.41,7.92,9,8.15C8.77,8.18,8.54,8.23,8.32,8.27
			c-0.01,0-0.03,0.01-0.04,0.01c0.21-0.99,0.7-1.89,1.4-2.6c0.72-0.71,1.63-1.2,2.64-1.41c1.73-0.36,3.63-0.36,5.36,0
			c1.01,0.21,1.92,0.7,2.64,1.41c0.71,0.72,1.2,1.63,1.41,2.64C21.91,9.18,22,10.09,22,11z"></path>
    <path fill="#d1e7fd" d="M9.7437,3.2734l-2.1123-2C7.231,0.8945,6.5986,0.9102,6.2178,1.3125
		C5.8379,1.7139,5.8555,2.3467,6.2563,2.7266L6.5452,3H6.313C4.6104,3,3.1216,3.9277,2.4287,5.4219
		C1.7754,6.8291,1.9985,8.4473,3.0112,9.6455C3.209,9.8799,3.4912,10,3.7754,10c0.228,0,0.4575-0.0771,0.645-0.2363
		C4.8423,9.4072,4.895,8.7764,4.5386,8.3545C4.019,7.7402,3.9111,6.9775,4.2427,6.2637C4.5264,5.6523,5.2188,5,6.313,5h0.2322
		L6.2563,5.2734C5.8555,5.6533,5.8379,6.2861,6.2178,6.6875C6.4146,6.8955,6.6787,7,6.9438,7C7.1909,7,7.438,6.9092,7.6313,6.7266
		l2.1123-2C9.9434,4.5371,10.0562,4.2744,10.0562,4S9.9434,3.4629,9.7437,3.2734z"></path>
  </g>
</svg>
