<svg width="516" height="516" viewBox="0 0 516 516" fill="none" xmlns="http://www.w3.org/2000/svg">
<path d="M515.58 391V258.73H516V257.27H515.58V125C515.572 92.5622 502.949 61.3989 480.38 38.1V35.7H515.58V34.23H481.4L514.22 1.23L513.22 0.230003L480.41 33.23V0.940002H478.95V34.23H476.47C453.506 12.2785 422.968 0.019346 391.2 0H124.37C92.6161 0.0296297 62.0935 12.2881 39.14 34.23H36.65V0.940002H35.2V33.2L2.39 0.199997L1.39 1.2L34.2 34.2H2.08V35.66H35.2V38.1C12.6281 61.3972 0.00450343 92.5616 0 125V391C0.00450343 423.438 12.6281 454.603 35.2 477.9V480.34H2.08V481.8H34.17L1.36 514.8L2.36 515.8L35.17 482.8V515.06H36.62V481.77H39.11C62.071 503.719 92.6057 515.978 124.37 516H391.2C422.957 515.973 453.484 503.714 476.44 481.77H478.92V515.06H480.38V482.8L513.19 515.8L514.19 514.8L481.37 481.8H516V480.34H480.38V477.9C502.944 454.598 515.566 423.437 515.58 391ZM514.12 391C514.117 422.533 502.045 452.868 480.38 475.78V350.45H513.6V349H480.38V258.73H514.12V391ZM349.33 349L348.33 348C349.99 346.313 351.6 344.58 353.16 342.8V349H349.33ZM353.16 350.46V352.85L350.78 350.46H353.16ZM163.25 349V343.75C164.55 345.2 165.89 346.61 167.25 348L166.25 349H163.25ZM164.8 350.46L163.25 352V350.45L164.8 350.46ZM166.25 167L167.25 168C165.89 169.39 164.55 170.81 163.25 172.25V167H166.25ZM163.25 165.54V164L164.8 165.55L163.25 165.54ZM353.16 167V173.2C351.6 171.42 349.99 169.687 348.33 168L349.33 167H353.16ZM350.78 165.54L353.16 163.15V165.54H350.78ZM353.16 257.26H349.74C349.588 233.268 340.114 210.275 323.32 193.14L347.32 169.04C349.32 171.087 351.273 173.21 353.18 175.41L353.16 257.26ZM354.61 177.14C373.262 199.683 383.512 228.001 383.61 257.26H354.61V177.14ZM322.29 194.14C338.82 210.992 348.145 233.615 348.29 257.22H259.54L322.29 194.14ZM258.52 256.14V167C282.045 167.164 304.569 176.541 321.26 193.12L258.52 256.14ZM257.06 256.14L194.31 193.05C211.02 176.502 233.543 167.151 257.06 167V256.14ZM256.06 257.14H167.29C167.441 233.536 176.764 210.915 193.29 194.06L256.06 257.14ZM256.06 258.6L193.31 321.68C176.784 304.825 167.461 282.204 167.31 258.6H256.06ZM257.06 259.6V349C233.53 348.835 211.003 339.454 194.31 322.87L257.06 259.6ZM258.52 259.6L321.26 322.68C304.603 339.335 282.074 348.786 258.52 349V259.6ZM259.52 258.6H348.26C348.115 282.205 338.79 304.828 322.26 321.68L259.52 258.6ZM346.27 168L322.27 192.11C309.097 179.041 292.263 170.284 274 167H345.25L346.27 168ZM258.52 165.54V131.47C290.212 131.625 320.664 143.806 343.72 165.55L258.52 165.54ZM257.06 165.54H171.86C194.912 143.79 225.366 131.608 257.06 131.46V165.54ZM241.57 167C223.301 170.285 206.461 179.041 193.28 192.11L169.28 168L170.28 167H241.57ZM168.28 169L192.28 193.1C175.478 210.23 166.002 233.226 165.86 257.22H163.27V174.46C164.88 172.61 166.55 170.8 168.28 169.05V169ZM161.8 257.22H131.93C132.042 227.513 142.618 198.794 161.8 176.11V257.22ZM161.8 258.68V339.79C142.618 317.106 132.042 288.387 131.93 258.68H161.8ZM163.25 258.68H165.84C165.981 282.671 175.457 305.665 192.26 322.79L168.26 346.9C166.53 345.15 164.86 343.34 163.26 341.49L163.25 258.68ZM169.31 348L193.31 323.89C206.483 336.954 223.312 345.71 241.57 349H170.33L169.31 348ZM257.06 350.46V384.54C225.366 384.392 194.912 372.21 171.86 350.46H257.06ZM258.52 350.46H343.72C320.664 372.204 290.212 384.385 258.52 384.54V350.46ZM274 349C292.27 345.72 309.112 336.963 322.29 323.89L346.29 348L345.29 349H274ZM347.3 347L323.3 322.89C340.096 305.761 349.571 282.77 349.72 258.78H353.14V340.63C351.273 342.79 349.327 344.913 347.3 347ZM354.61 258.78H383.61C383.512 288.039 373.262 316.357 354.61 338.9V258.78ZM385.1 257.32C384.989 227.12 374.187 197.935 354.61 174.94V167H431.51C445.985 194.889 453.574 225.838 453.64 257.26L385.1 257.32ZM354.61 165.6V161.74L396.79 119.35C410.298 133.032 421.735 148.613 430.74 165.6H354.61ZM354.61 159.68V86.82C369.653 95.4396 383.49 106.011 395.76 118.26L354.61 159.68ZM353.16 161.14L348.73 165.6H345.84C322.408 142.925 291.126 130.172 258.52 130V61.12C291.674 61.1928 324.257 69.7585 353.16 86V161.14ZM257.06 130C224.461 130.154 193.181 142.886 169.74 165.54H166.85L163.25 161.92V85.52C191.952 69.5801 224.229 61.1815 257.06 61.11V130ZM161.8 160.47L119.8 118.26C132.305 105.787 146.432 95.0539 161.8 86.35V160.47ZM161.8 162.54V165.54H84.8C93.8013 148.551 105.239 132.969 118.75 119.29L161.8 162.54ZM161.8 167.01V173.91C141.706 197.045 130.588 226.627 130.47 257.27H61.94C62.0048 225.845 69.593 194.892 84.07 167L161.8 167.01ZM130.47 258.73C130.588 289.373 141.706 318.955 161.8 342.09V349H84.07C69.5946 321.111 62.0064 290.162 61.94 258.74L130.47 258.73ZM161.8 350.45V353.45L118.8 396.68C105.289 383.001 93.8513 367.419 84.85 350.43L161.8 350.45ZM161.8 355.53V429.65C146.432 420.946 132.305 410.213 119.8 397.74L161.8 355.53ZM163.25 354.07L166.85 350.45H169.74C193.179 373.108 224.46 385.843 257.06 386V454.9C224.229 454.82 191.953 446.419 163.25 430.48V354.07ZM258.52 386C291.118 385.844 322.398 373.113 345.84 350.46H348.73L353.16 354.92V430C324.256 446.24 291.674 454.809 258.52 454.89V386ZM354.61 356.38L395.76 397.75C383.485 409.993 369.649 420.565 354.61 429.19V356.38ZM354.61 354.32V350.46H430.74C421.735 367.447 410.298 383.028 396.79 396.71L354.61 354.32ZM354.61 349V341.12C374.187 318.125 384.989 288.94 385.1 258.74H453.64C453.574 290.162 445.985 321.111 431.51 349H354.61ZM455.09 258.74H478.92V349H433.15C447.508 321.072 455.027 290.133 455.09 258.73V258.74ZM455.09 257.28C455.029 225.874 447.509 194.931 433.15 167H478.92V257.26L455.09 257.28ZM432.38 165.56C423.253 148.18 411.607 132.244 397.82 118.27L478 37.7L478.07 37.76C478.37 38.07 478.67 38.4 478.97 38.76V165.55L432.38 165.56ZM476.9 36.69L396.79 117.23C384.23 104.693 370.043 93.9003 354.61 85.14V35.69H475.86L476.9 36.69ZM353.16 84.33C324.211 68.2238 291.647 59.7318 258.52 59.65V35.65H353.16V84.33ZM258.52 34.23V1.46H353.16V34.23H258.52ZM257.06 34.23H163.25V1.46H257.06V34.23ZM257.06 35.69V59.69C224.255 59.7668 191.995 68.0921 163.25 83.9V35.69H257.06ZM161.8 84.69C146.048 93.5265 131.58 104.478 118.8 117.24L38.69 36.7L39.69 35.7H161.8V84.69ZM37.56 37.76L37.62 37.7L117.76 118.26C103.967 132.232 92.3175 148.168 83.19 165.55H36.65V38.72C37 38.4 37.25 38.07 37.56 37.76ZM82.43 167C68.0738 194.925 60.5542 225.861 60.49 257.26H36.65V167H82.43ZM60.49 258.72C60.551 290.126 68.0707 321.069 82.43 349H36.65V258.73L60.49 258.72ZM83.19 350.44C92.3175 367.822 103.967 383.758 117.76 397.73L37.62 478.3L37.56 478.24C37.25 477.93 36.96 477.6 36.65 477.24V350.45L83.19 350.44ZM38.68 479.31L118.79 398.77C131.573 411.532 146.04 422.487 161.79 431.33V480.33H39.72L38.68 479.31ZM163.25 432.14C191.995 447.948 224.255 456.273 257.06 456.35V480.35H163.25V432.14ZM257.06 481.77V514.54H163.25V481.77H257.06ZM258.52 481.77H353.16V514.54H258.52V481.77ZM258.52 480.31V456.31C291.647 456.228 324.211 447.736 353.16 431.63V480.27L258.52 480.31ZM354.61 430.86C370.043 422.1 384.23 411.307 396.79 398.77L476.9 479.31L475.9 480.31H354.61V430.86ZM478 478.24L477.93 478.3L397.8 397.74C411.587 383.766 423.233 367.83 432.36 350.45H478.9V477.28L478 478.24ZM514.12 125V257.27H480.38V167H513.6V165.54H480.38V40.25C502.038 63.1542 514.11 93.4777 514.12 125ZM474.34 34.2H354.61V1.46H391.2C422.059 1.48278 451.765 13.1913 474.34 34.23V34.2ZM124.34 1.43H161.8V34.2H41.24C63.817 13.1737 93.5183 1.47617 124.37 1.46L124.34 1.43ZM1.45 391V125C1.45623 93.4661 13.5324 63.1307 35.2 40.22V165.52H2V167H35.2V257.26H1.88V258.72H35.2V349H2V350.46H35.2V475.76C13.5372 452.854 1.46134 422.527 1.45 391ZM41.24 481.8H161.8V514.57H124.37C93.5102 514.538 63.8078 502.818 41.24 481.77V481.8ZM391.24 514.57H354.61V481.77H474.34C451.763 502.807 422.059 514.515 391.2 514.54L391.24 514.57Z" fill="white"/>
</svg>
